<svg width="86" height="60" viewBox="0 0 86 60" fill="none" xmlns="http://www.w3.org/2000/svg">
<rect x="6.35193" y="17.3624" width="19.6697" height="24.1402" fill="#FA1818"/>
<path d="M45.9005 41.7826H8.79355C7.45134 41.7826 6.16455 41.3573 5.21539 40.6004C4.26663 39.8432 3.73352 38.8166 3.73352 37.7459V21.5989C3.73352 20.5281 4.26663 19.5015 5.21539 18.7443C6.16452 17.9874 7.45134 17.5621 8.79355 17.5621H45.9005C47.2427 17.5621 48.5295 17.9874 49.4786 18.7443C50.4274 19.5015 50.9605 20.5281 50.9605 21.5989V22.9444H52.6472C53.0945 22.9444 53.5237 23.0862 53.8399 23.3385C54.1562 23.5908 54.3339 23.9332 54.3339 24.29V35.0547C54.3339 35.4115 54.1562 35.7539 53.8399 36.0062C53.5237 36.2585 53.0945 36.4003 52.6472 36.4003H50.9605V37.7459C50.9605 38.8166 50.4274 39.8432 49.4786 40.6004C48.5295 41.3573 47.2427 41.7826 45.9005 41.7826ZM8.79355 20.2533C8.34629 20.2533 7.91708 20.3951 7.60083 20.6473C7.28458 20.8996 7.10688 21.242 7.10688 21.5989V37.7459C7.10688 38.1027 7.28458 38.4451 7.60083 38.6974C7.91708 38.9497 8.34629 39.0914 8.79355 39.0914H45.9005C46.3477 39.0914 46.7769 38.9497 47.0932 38.6974C47.4094 38.4451 47.5872 38.1027 47.5872 37.7459V35.0547C47.5872 34.6979 47.7649 34.3555 48.0811 34.1032C48.3974 33.8509 48.8266 33.7091 49.2738 33.7091H50.9605V25.6356H49.2738C48.8266 25.6356 48.3974 25.4938 48.0811 25.2415C47.7649 24.9893 47.5872 24.6468 47.5872 24.29V21.5989C47.5872 21.242 47.4094 20.8996 47.0932 20.6473C46.7769 20.3951 46.3477 20.2533 45.9005 20.2533H8.79355Z" fill="#013220"/>
<path d="M31.2224 25.5089C30.7664 24.9812 30.1632 24.6873 29.5365 24.6873C28.9098 24.6873 28.3066 24.9812 27.8506 25.5089L27.0051 26.4866L26.1596 25.5089C25.7017 24.9812 25.0969 24.6879 24.4689 24.6884C23.8433 24.686 23.2412 24.9799 22.7879 25.5089C22.3415 26.014 22.0876 26.7252 22.0876 27.4701C22.0876 28.2153 22.3415 28.9264 22.7879 29.4313L23.6333 30.4211L27.0051 34.3434L30.3768 30.4211L31.2223 29.4313C31.6686 28.9265 31.9225 28.2153 31.9225 27.4701C31.9225 26.7252 31.6686 26.0141 31.2223 25.5089H31.2224Z" fill="#013220"/>
</svg>
