<svg width="19" height="28" viewBox="0 0 19 28" fill="none" xmlns="http://www.w3.org/2000/svg">
<path d="M15.8803 15.0839V12.7173H14.5128V15.4628C14.5128 15.7055 14.5849 15.9383 14.7131 16.1099L16.5641 18.5872V20.0387H1.52133V18.5872L3.37227 16.1099C3.50051 15.9383 3.57257 15.7055 3.57261 15.4628V11.8021C3.57071 10.5161 3.82239 9.25215 4.30224 8.13799C4.7821 7.02383 5.47313 6.09889 6.30553 5.45659C7.13794 4.81429 8.08224 4.47737 9.04307 4.47988C10.0039 4.48238 10.9472 4.82422 11.7777 5.47086V3.42542C11.1269 3.03969 10.4346 2.79384 9.72646 2.69694V0.819901H8.35894V2.69602C6.67317 2.92567 5.11091 3.98379 3.97423 5.66577C2.83755 7.34776 2.20721 9.53412 2.20509 11.8021V15.0839L0.35415 17.5613C0.225912 17.7329 0.153847 17.9657 0.153809 18.2084V20.9539C0.153809 21.1966 0.225847 21.4294 0.354077 21.601C0.482307 21.7727 0.656225 21.8691 0.837569 21.8691H5.62389V22.7843C5.62389 23.9979 5.98409 25.1618 6.62524 26.0199C7.26639 26.8781 8.13597 27.3602 9.0427 27.3602C9.94942 27.3602 10.819 26.8781 11.4602 26.0199C12.1013 25.1618 12.4615 23.9979 12.4615 22.7843V21.8691H17.2478C17.4292 21.8691 17.6031 21.7727 17.7313 21.601C17.8595 21.4294 17.9316 21.1966 17.9316 20.9539V18.2084C17.9315 17.9657 17.8595 17.7329 17.7312 17.5613L15.8803 15.0839ZM11.094 22.7843C11.094 23.5124 10.8779 24.2108 10.4932 24.7257C10.1085 25.2406 9.58673 25.5298 9.0427 25.5298C8.49866 25.5298 7.97691 25.2406 7.59222 24.7257C7.20753 24.2108 6.99142 23.5124 6.99142 22.7843V21.8691H11.094V22.7843Z" fill="#435B71"/>
<path d="M15.8803 10.8869C17.3908 10.8869 18.6153 9.24793 18.6153 7.22617C18.6153 5.2044 17.3908 3.56544 15.8803 3.56544C14.3698 3.56544 13.1453 5.2044 13.1453 7.22617C13.1453 9.24793 14.3698 10.8869 15.8803 10.8869Z" fill="#0D986A"/>
</svg>
