<svg width="28" height="30" viewBox="0 0 28 30" fill="none" xmlns="http://www.w3.org/2000/svg">
<path d="M2.37445 25.5308H9.20137V27.308H2.37445V25.5308ZM15.1749 26.4194C15.0471 26.4193 14.9209 26.3893 14.8057 26.3317C14.6905 26.274 14.5892 26.1901 14.5093 26.0862L11.3519 21.9763H2.37445V20.199H11.7615C11.8893 20.1991 12.0155 20.2291 12.1307 20.2868C12.2459 20.3445 12.3472 20.4283 12.4271 20.5323L15.1126 24.0263L19.5851 17.04C19.6609 16.9217 19.7627 16.8241 19.8821 16.7554C20.0016 16.6866 20.1351 16.6487 20.2715 16.6448C20.408 16.6409 20.5433 16.6711 20.6662 16.7329C20.7891 16.7947 20.8959 16.8863 20.9778 17L23.2819 20.199H26.2687V21.9763H22.8552C22.7227 21.9763 22.5921 21.9442 22.4736 21.8825C22.3551 21.8208 22.252 21.7312 22.1725 21.6208L20.3361 19.0705L15.8849 26.024C15.8105 26.1403 15.7107 26.2367 15.5937 26.3052C15.4767 26.3738 15.3458 26.4126 15.2116 26.4185L15.1749 26.4194ZM10.0547 14.8673V10.4241H10.9081C11.8131 10.423 12.6806 10.0481 13.3205 9.38176C13.9604 8.71541 14.3204 7.81199 14.3216 6.86964V4.20376H11.7615C10.8876 4.20526 10.048 4.5576 9.41728 5.18747C8.97537 4.35196 8.32641 3.65511 7.538 3.16952C6.74958 2.68393 5.85055 2.42735 4.93455 2.42651H2.37445V5.09239C2.37603 6.50595 2.91599 7.86115 3.87587 8.86069C4.83575 9.86023 6.13717 10.4225 7.49464 10.4241H8.34801V14.8673H2.37445V16.6445H14.3216V14.8673H10.0547ZM11.7615 5.98102H12.6148V6.86964C12.6144 7.34085 12.4344 7.79263 12.1144 8.12583C11.7945 8.45903 11.3606 8.64642 10.9081 8.64689H10.0547V7.75827C10.0552 7.28706 10.2352 6.83528 10.5551 6.50208C10.8751 6.16888 11.309 5.98149 11.7615 5.98102ZM7.49464 8.64689C6.58968 8.64572 5.72211 8.27085 5.08221 7.6045C4.4423 6.93816 4.08231 6.03474 4.08118 5.09239V4.20376H4.93455C5.83951 4.20494 6.70708 4.57981 7.34698 5.24615C7.98689 5.9125 8.34688 6.81592 8.34801 7.75827V8.64689H7.49464Z" fill="#013220"/>
</svg>
