<svg width="289" height="172" viewBox="0 0 289 172" fill="none" xmlns="http://www.w3.org/2000/svg">
<path d="M45.5365 158.24C45.5365 158.24 4.65167 140.546 0.706977 93.531C-3.23772 46.5163 45.5365 43.9885 45.5365 43.9885C45.5365 43.9885 81.0388 43.5843 112.04 37.4188C143.041 31.2533 178.012 8.09882 178.012 8.09882C178.012 8.09882 236.176 -20.9132 264.258 31.2533C292.34 83.4197 262.932 141.854 231.019 152.96C204.731 162.109 137.64 185.796 45.5365 158.24Z" fill="#3D5300"/>
<path d="M191.872 135.226C197.019 135.226 201.193 132.851 201.193 129.921C201.193 126.99 197.019 124.615 191.872 124.615C186.724 124.615 182.551 126.99 182.551 129.921C182.551 132.851 186.724 135.226 191.872 135.226Z" fill="#0E7F3D"/>
<path d="M262.595 46.3373L267.477 72.8151C267.727 74.1688 269.447 74.5281 270.197 73.3861L276.517 63.7497L287.395 60.5289C288.682 60.144 288.876 58.354 287.695 57.6932L264.633 44.8168C263.601 44.2393 262.376 45.1568 262.595 46.3373Z" fill="#EDB82C"/>
<path d="M200.855 33.3006C204.94 33.3006 208.251 29.9026 208.251 25.7108C208.251 21.5191 204.94 18.121 200.855 18.121C196.771 18.121 193.46 21.5191 193.46 25.7108C193.46 29.9026 196.771 33.3006 200.855 33.3006Z" fill="#32B768"/>
<path d="M12.9345 137.388C19.018 137.388 23.9496 132.327 23.9496 126.084C23.9496 119.84 19.018 114.779 12.9345 114.779C6.85096 114.779 1.91931 119.84 1.91931 126.084C1.91931 132.327 6.85096 137.388 12.9345 137.388Z" fill="#0E7F3D"/>
<path d="M74.7686 18.0684C74.4997 16.9777 72.468 16.5029 69.7424 16.7339C69.211 16.7788 68.7109 16.4709 68.4983 15.9704C67.4043 13.3977 66.0352 11.781 64.9787 12.0568C63.916 12.3327 63.4533 14.4178 63.6784 17.2151C63.7222 17.7604 63.4221 18.2737 62.9345 18.4918C60.4276 19.6146 58.8522 21.0196 59.1211 22.1039C59.3899 23.1945 61.4216 23.6693 64.1473 23.4384C64.6786 23.3934 65.1788 23.7014 65.3913 24.2018C66.4853 26.7745 67.8544 28.3913 68.9109 28.1154C69.9674 27.8396 70.4363 25.7544 70.2112 22.9572C70.1675 22.4118 70.4675 21.8986 70.9551 21.6805C73.462 20.5641 75.0374 19.1591 74.7686 18.0684Z" fill="#EDB82C"/>
</svg>
