<svg width="269" height="209" viewBox="0 0 269 209" fill="none" xmlns="http://www.w3.org/2000/svg">
<path d="M21.8824 189.804C21.8824 189.804 -2.98658 173.055 0.494054 135.848C4.34762 94.6488 20.1641 90.1462 32.1342 84.0977C45.7204 77.2312 57.3469 76.0455 72.9294 42.1107C93.4988 -2.69047 130.513 0.348799 144.524 0.348799C192.097 0.348799 191.527 48.7595 214.495 72.8561C236.117 95.5343 283.369 144.696 229.851 188.243C201.984 210.914 66.4434 218.126 21.8824 189.804Z" fill="#3D5300"/>
<path d="M220.82 100.007C242.809 100.007 260.635 81.713 260.635 59.1459C260.635 36.5788 242.809 18.2846 220.82 18.2846C198.831 18.2846 181.005 36.5788 181.005 59.1459C181.005 81.713 198.831 100.007 220.82 100.007Z" fill="#BF6A02"/>
<path d="M215.065 75.7446L200.024 63.3849C198.452 62.0866 197.955 59.7753 199.008 58.0118C200.28 55.873 203.037 55.4302 204.879 56.9461L218.553 68.1802L236.154 46.0047C237.536 44.2637 240.037 44.0011 241.733 45.4194C243.43 46.8377 243.686 49.4042 242.304 51.1452L223.504 74.8216C221.412 77.4556 217.647 77.8683 215.065 75.7446Z" fill="white"/>
<path d="M29.3337 41.4571C28.9534 39.9187 26.087 39.2508 22.2408 39.5735C21.4876 39.6335 20.7856 39.2058 20.4858 38.5004C18.9502 34.8683 17.0125 32.5944 15.5135 32.9772C14.0145 33.3674 13.3637 36.3091 13.6781 40.2564C13.7366 41.0294 13.3198 41.7498 12.6324 42.0575C9.09331 43.6334 6.87769 45.622 7.25062 47.1604C7.63086 48.6988 10.4973 49.3667 14.3435 49.044C15.0967 48.984 15.7987 49.4117 16.0985 50.1172C17.634 53.7493 19.5718 56.0231 21.0708 55.6404C22.5698 55.2502 23.2206 52.3084 22.9062 48.3611C22.8477 47.5882 23.2645 46.8678 23.9518 46.5601C27.491 44.9767 29.7139 42.9955 29.3337 41.4571Z" fill="#32B768"/>
<path d="M268.942 139.06C269.191 137.499 266.814 135.705 263.166 134.437C262.456 134.189 261.974 133.506 261.974 132.733C261.966 128.779 261.082 125.897 259.553 125.634C258.032 125.379 256.285 127.818 255.049 131.563C254.808 132.291 254.142 132.786 253.389 132.786C249.535 132.793 246.728 133.701 246.472 135.27C246.223 136.831 248.6 138.624 252.248 139.893C252.958 140.14 253.44 140.823 253.44 141.596C253.448 145.551 254.332 148.433 255.861 148.695C257.382 148.95 259.129 146.511 260.365 142.767C260.606 142.039 261.272 141.544 262.025 141.544C265.886 141.536 268.694 140.628 268.942 139.06Z" fill="#EDB82C"/>
<path d="M12.9176 189.144C17.9283 189.144 21.9902 184.975 21.9902 179.833C21.9902 174.691 17.9283 170.522 12.9176 170.522C7.90693 170.522 3.84497 174.691 3.84497 179.833C3.84497 184.975 7.90693 189.144 12.9176 189.144Z" fill="#32B768"/>
</svg>
