<svg width="31" height="30" viewBox="0 0 31 30" fill="none" xmlns="http://www.w3.org/2000/svg">
<path d="M21.9479 15H8.63542C7.82006 15 7.15625 14.3272 7.15625 13.5V12C7.15625 11.1728 7.82006 10.5 8.63542 10.5H21.9479C22.7633 10.5 23.4271 11.1728 23.4271 12V13.5C23.4271 14.3272 22.7633 15 21.9479 15ZM8.63542 12V13.5H21.9488L21.9481 12H8.63542Z" fill="#013220"/>
<path d="M15.97 24H14.6136C12.072 24 9.92467 22.155 9.5067 19.6131L8.64579 14.3734C8.60963 14.156 8.67039 13.9336 8.81121 13.7652C8.95136 13.5972 9.15788 13.5001 9.37532 13.5001H21.2087C21.4261 13.5001 21.6326 13.5972 21.7728 13.7652C21.9136 13.9337 21.9743 14.156 21.9382 14.3734L21.0773 19.6131C20.6591 22.1551 18.5118 24 15.9703 24H15.97ZM10.2481 15L10.9653 19.3663C11.2636 21.182 12.7984 22.4999 14.6133 22.4999H15.9697C17.7846 22.4999 19.3195 21.1818 19.6177 19.3663L20.3349 15H10.2481Z" fill="#013220"/>
<path d="M17.3249 12C17.2158 12 17.1053 11.9756 17.0006 11.9235C16.6337 11.7415 16.4821 11.2922 16.6612 10.92C17.2245 9.75316 17.5106 8.60223 17.5106 7.49999C17.5106 7.00529 17.4558 6.51929 17.3437 6.01508C16.9435 4.21255 15.9223 2.69785 15.2919 1.89509C14.6614 2.6978 13.64 4.2122 13.24 6.01456C13.1281 6.51929 13.0731 7.00512 13.0731 7.49999C13.0731 8.6084 13.3605 9.75805 13.9276 10.9163C14.1097 11.2873 13.9601 11.7373 13.5939 11.9216C13.2291 12.1063 12.7844 11.9543 12.6031 11.5836C11.9335 10.2159 11.5941 8.84212 11.5941 7.5C11.5941 6.90133 11.6628 6.29045 11.797 5.68479C12.4864 2.57816 14.6741 0.316502 14.7666 0.221359C15.0454 -0.0620677 15.538 -0.0620677 15.8167 0.221359C15.9092 0.316279 18.0969 2.57799 18.7866 5.68479C18.921 6.29015 18.9895 6.90103 18.9895 7.4997C18.9895 8.83265 18.6529 10.2052 17.9899 11.5797C17.8613 11.8455 17.5985 11.9997 17.3248 11.9997L17.3249 12Z" fill="#013220"/>
<path d="M21.1563 12C20.9721 12 20.788 11.9307 20.6443 11.7912C20.3496 11.5044 20.3402 11.0295 20.6226 10.7307C20.7729 10.5718 20.9231 10.3933 21.0596 10.2077C22.5041 8.25919 22.6435 5.67169 22.6075 4.37441C21.631 4.63373 19.9258 5.22319 18.5455 6.41998C18.2372 6.688 17.7683 6.65251 17.5034 6.33711C17.2376 6.02221 17.2744 5.54892 17.5843 5.27939C19.9677 3.21287 23.0487 2.73458 23.1789 2.71517C23.3768 2.68436 23.5725 2.7371 23.7299 2.8573C23.8881 2.977 23.9921 3.15613 24.0188 3.35384C24.0441 3.53883 24.6112 7.91213 22.2435 11.1076C22.0723 11.3394 21.8859 11.5621 21.6903 11.7688C21.5452 11.9224 21.3509 11.9995 21.1566 11.9995L21.1563 12Z" fill="#013220"/>
<path d="M9.427 12C9.23269 12 9.03839 11.9228 8.89327 11.7693C8.69764 11.5624 8.51126 11.3397 8.33926 11.1072C5.97242 7.91232 6.53932 3.53905 6.56477 3.35391C6.59151 3.15619 6.69552 2.97706 6.85366 2.85736C7.01182 2.737 7.20976 2.68594 7.40472 2.71523C7.5348 2.73465 10.6158 3.21293 12.9993 5.27946C13.3092 5.54899 13.346 6.02209 13.0802 6.33718C12.8151 6.65325 12.3456 6.6884 12.0381 6.42004C10.6514 5.21739 8.94965 4.63007 7.97614 4.37293C7.93999 5.67004 8.07932 8.25802 9.52314 10.2071C9.66033 10.3934 9.81056 10.5719 9.96076 10.7307C10.2431 11.0296 10.2338 11.5045 9.93914 11.7913C9.79552 11.9307 9.61128 12 9.42705 12L9.427 12Z" fill="#013220"/>
</svg>
